<svg width="110" height="10" viewBox="0 0 110 10" fill="none" xmlns="http://www.w3.org/2000/svg">
<path d="M3.68 0.599999H0.0440001V9H1.988V6.684H3.68C5.924 6.684 7.328 5.52 7.328 3.648C7.328 1.764 5.924 0.599999 3.68 0.599999ZM3.572 5.1H1.988V2.184H3.572C4.76 2.184 5.36 2.724 5.36 3.648C5.36 4.56 4.76 5.1 3.572 5.1ZM14.6205 9H16.6605L12.9045 0.599999H10.9845L7.24053 9H9.23253L9.97653 7.2H13.8765L14.6205 9ZM10.6005 5.724L11.9325 2.508L13.2645 5.724H10.6005ZM22.5505 4.62C23.2945 4.296 23.7625 3.648 23.7625 2.832C23.7625 1.308 22.0825 0.42 20.1385 0.42C19.1785 0.42 18.1705 0.636 17.2585 1.104L17.8465 2.616C18.5665 2.208 19.3945 2.016 20.1025 2.016C21.0505 2.016 21.7945 2.376 21.7945 3.06C21.7945 3.612 21.3385 3.96 20.5465 3.96H18.6385V5.424H20.6905C21.5665 5.424 22.1425 5.736 22.1425 6.372C22.1425 7.152 21.2425 7.56 20.1385 7.56C19.3225 7.56 18.3865 7.344 17.6185 6.876L17.0185 8.268C18.0625 8.868 19.2505 9.144 20.3665 9.144C22.3825 9.144 24.1105 8.232 24.1105 6.648C24.1105 5.7 23.5225 4.956 22.5505 4.62ZM29.2855 0.599999H25.6495V9H27.5935V6.684H29.2855C31.5295 6.684 32.9335 5.52 32.9335 3.648C32.9335 1.764 31.5295 0.599999 29.2855 0.599999ZM29.1775 5.1H27.5935V2.184H29.1775C30.3655 2.184 30.9655 2.724 30.9655 3.648C30.9655 4.56 30.3655 5.1 29.1775 5.1ZM40.226 9H42.266L38.51 0.599999H36.59L32.846 9H34.838L35.582 7.2H39.482L40.226 9ZM36.206 5.724L37.538 2.508L38.87 5.724H36.206ZM43.3799 9H47.3639C49.5239 9 50.7599 8.028 50.7599 6.348C50.7599 4.74 49.6679 3.876 47.6399 3.876H45.3119V2.148H50.1599V0.599999H43.3799V9ZM45.3119 7.56V5.304H47.2559C48.2759 5.304 48.7919 5.664 48.7919 6.408C48.7919 7.164 48.2519 7.56 47.2559 7.56H45.3119ZM56.2473 9.144C58.8873 9.144 60.8433 7.308 60.8433 4.8C60.8433 2.292 58.8873 0.456 56.2473 0.456C53.5953 0.456 51.6513 2.304 51.6513 4.8C51.6513 7.296 53.5953 9.144 56.2473 9.144ZM56.2473 7.488C54.7473 7.488 53.6193 6.396 53.6193 4.8C53.6193 3.204 54.7473 2.112 56.2473 2.112C57.7473 2.112 58.8753 3.204 58.8753 4.8C58.8753 6.396 57.7473 7.488 56.2473 7.488ZM68.6437 0.599999H61.3597V2.184H64.0357V9H65.9557V2.184H68.6437V0.599999ZM75.8744 9H77.9144L74.1584 0.599999H72.2384L68.4944 9H70.4864L71.2304 7.2H75.1304L75.8744 9ZM71.8544 5.724L73.1864 2.508L74.5184 5.724H71.8544ZM84.7884 0.599999V3.912H80.9724V0.599999H79.0284V9H80.9724V5.556H84.7884V9H86.7324V0.599999H84.7884ZM92.845 9.144C95.485 9.144 97.441 7.308 97.441 4.8C97.441 2.292 95.485 0.456 92.845 0.456C90.193 0.456 88.249 2.304 88.249 4.8C88.249 7.296 90.193 9.144 92.845 9.144ZM92.845 7.488C91.345 7.488 90.217 6.396 90.217 4.8C90.217 3.204 91.345 2.112 92.845 2.112C94.345 2.112 95.473 3.204 95.473 4.8C95.473 6.396 94.345 7.488 92.845 7.488ZM108.157 4.62C108.901 4.26 109.345 3.624 109.345 2.772C109.345 1.38 108.193 0.599999 106.249 0.599999H102.337V9H106.477C108.601 9 109.741 8.1 109.741 6.636C109.741 5.616 109.177 4.92 108.157 4.62ZM104.269 2.04H106.081C106.921 2.04 107.365 2.4 107.365 3.06C107.365 3.732 106.921 4.08 106.081 4.08H104.269V2.04ZM106.405 7.56H104.269V5.436H106.405C107.305 5.436 107.773 5.772 107.773 6.48C107.773 7.212 107.305 7.56 106.405 7.56Z" fill="black"/>
</svg>
