<?xml version="1.0" encoding="utf-8"?>
<!-- Generator: Adobe Illustrator 24.1.2, SVG Export Plug-In . SVG Version: 6.00 Build 0)  -->
<svg version="1.1" id="Слой_1" xmlns="http://www.w3.org/2000/svg" xmlns:xlink="http://www.w3.org/1999/xlink" x="0px" y="0px"
	 viewBox="0 0 27 46" style="enable-background:new 0 0 27 46;" xml:space="preserve">
<style type="text/css">
	.st0{fill:none;stroke:#020203;stroke-width:2;}
	.st1{fill:#020203;}
</style>
<path class="st0" d="M13.5,1L13.5,1C20.4,1,26,6.6,26,13.5v19C26,39.4,20.4,45,13.5,45l0,0C6.6,45,1,39.4,1,32.5v-19
	C1,6.6,6.6,1,13.5,1z"/>
<path class="st1" d="M13.5,11.5L13.5,11.5c0.7,0,1.2,0.5,1.2,1.2v5.8c0,0.7-0.5,1.2-1.2,1.2h0c-0.7,0-1.2-0.5-1.2-1.2v-5.8
	C12.3,12,12.8,11.5,13.5,11.5z"/>
</svg>
